<svg width="53" height="57" viewBox="0 0 53 57" fill="none" xmlns="http://www.w3.org/2000/svg">
<mask id="path-1-outside-1_1435_2134" maskUnits="userSpaceOnUse" x="-0.678833" y="0" width="54" height="57" fill="black">
<rect fill="white" x="-0.678833" width="54" height="57"/>
<path fill-rule="evenodd" clip-rule="evenodd" d="M26.4997 1.00014C26.4996 1.00022 26.4995 1.00027 26.4994 1.00027L25.6429 1.00008C25.2513 1 24.8956 1.22852 24.733 1.58477L1.41172 52.667C1.18366 53.1665 1.40109 53.7565 1.89878 53.9886L5.6255 55.7264C6.13713 55.965 6.7447 55.733 6.96718 55.2142L12.9087 41.3586C13.0546 41.0184 13.3764 40.7866 13.7453 40.7561L25.9415 39.747C25.9917 39.7429 26.0422 39.7425 26.0924 39.746L39.6731 40.6777C40.0394 40.7029 40.3625 40.9267 40.5147 41.2609L46.6127 54.6498C46.8306 55.1283 47.3819 55.3563 47.8741 55.1716L51.212 53.9187C51.7618 53.7124 52.0163 53.0789 51.762 52.5495L27.115 1.23999C27.0446 1.09341 26.8964 1.00016 26.7338 1.00009L26.4999 1C26.4998 1 26.4997 1.00005 26.4997 1.00014V1.00014ZM27.2552 12.1477C26.8952 11.3574 25.7683 11.3699 25.426 12.168L15.2296 35.9462C14.9274 36.6508 15.4981 37.4194 16.26 37.3341L25.9125 36.2525C25.9819 36.2447 26.052 36.2442 26.1215 36.251L37.0726 37.3256C37.8394 37.4008 38.3997 36.6171 38.0803 35.9159L27.2552 12.1477Z"/>
</mask>
<path fill-rule="evenodd" clip-rule="evenodd" d="M26.4997 1.00014C26.4996 1.00022 26.4995 1.00027 26.4994 1.00027L25.6429 1.00008C25.2513 1 24.8956 1.22852 24.733 1.58477L1.41172 52.667C1.18366 53.1665 1.40109 53.7565 1.89878 53.9886L5.6255 55.7264C6.13713 55.965 6.7447 55.733 6.96718 55.2142L12.9087 41.3586C13.0546 41.0184 13.3764 40.7866 13.7453 40.7561L25.9415 39.747C25.9917 39.7429 26.0422 39.7425 26.0924 39.746L39.6731 40.6777C40.0394 40.7029 40.3625 40.9267 40.5147 41.2609L46.6127 54.6498C46.8306 55.1283 47.3819 55.3563 47.8741 55.1716L51.212 53.9187C51.7618 53.7124 52.0163 53.0789 51.762 52.5495L27.115 1.23999C27.0446 1.09341 26.8964 1.00016 26.7338 1.00009L26.4999 1C26.4998 1 26.4997 1.00005 26.4997 1.00014V1.00014ZM27.2552 12.1477C26.8952 11.3574 25.7683 11.3699 25.426 12.168L15.2296 35.9462C14.9274 36.6508 15.4981 37.4194 16.26 37.3341L25.9125 36.2525C25.9819 36.2447 26.052 36.2442 26.1215 36.251L37.0726 37.3256C37.8394 37.4008 38.3997 36.6171 38.0803 35.9159L27.2552 12.1477Z" fill="#10C500"/>
<path d="M37.0726 37.3256L36.975 38.3208L37.0726 37.3256ZM38.0803 35.9159L37.1703 36.3303L38.0803 35.9159ZM25.9125 36.2525L25.8012 35.2587L25.9125 36.2525ZM26.1215 36.251L26.0239 37.2463L26.1215 36.251ZM15.2296 35.9462L14.3105 35.5521L15.2296 35.9462ZM16.26 37.3341L16.3714 38.3278L16.26 37.3341ZM25.426 12.168L26.3451 12.5621L25.426 12.168ZM27.2552 12.1477L26.3451 12.5621L27.2552 12.1477ZM26.4999 1L26.4995 2L26.4999 1ZM27.115 1.23999L26.2136 1.67298L27.115 1.23999ZM51.212 53.9187L51.5634 54.855L51.212 53.9187ZM51.762 52.5495L50.8606 52.9825L51.762 52.5495ZM46.6127 54.6498L45.7026 55.0643L46.6127 54.6498ZM47.8741 55.1716L47.5227 54.2354L47.8741 55.1716ZM39.6731 40.6777L39.7416 39.6801L39.6731 40.6777ZM40.5147 41.2609L39.6047 41.6754L40.5147 41.2609ZM25.9415 39.747L25.8591 38.7504L25.9415 39.747ZM26.0924 39.746L26.024 40.7436L26.0924 39.746ZM12.9087 41.3586L13.8277 41.7527L12.9087 41.3586ZM13.7453 40.7561L13.8277 41.7527L13.7453 40.7561ZM5.6255 55.7264L5.20288 56.6327L5.6255 55.7264ZM6.96718 55.2142L6.04812 54.8201L6.96718 55.2142ZM1.41172 52.667L2.3214 53.0823L2.3214 53.0823L1.41172 52.667ZM1.89878 53.9886L2.3214 53.0823L1.89878 53.9886ZM26.4994 1.00027L26.4992 2.00027L26.4994 1.00027ZM25.6427 2.00008L26.4992 2.00027L26.4997 0.000270447L25.6431 8.48141e-05L25.6427 2.00008ZM2.3214 53.0823L25.6427 2.00008L23.8233 1.16946L0.502043 52.2517L2.3214 53.0823ZM6.04812 54.8201L2.3214 53.0823L1.47617 54.8949L5.20288 56.6327L6.04812 54.8201ZM11.9896 40.9645L6.04812 54.8201L7.88625 55.6083L13.8277 41.7527L11.9896 40.9645ZM13.8277 41.7527L26.024 40.7436L25.8591 38.7504L13.6628 39.7595L13.8277 41.7527ZM26.024 40.7436L39.6047 41.6754L39.7416 39.6801L26.1609 38.7483L26.024 40.7436ZM39.6047 41.6754L45.7026 55.0643L47.5227 54.2354L41.4248 40.8464L39.6047 41.6754ZM48.2255 56.1078L51.5634 54.855L50.8606 52.9825L47.5227 54.2354L48.2255 56.1078ZM52.6634 52.1165L28.0164 0.806992L26.2136 1.67298L50.8606 52.9825L52.6634 52.1165ZM26.7342 9.36694e-05L26.5003 1.43773e-07L26.4995 2L26.7334 2.00009L26.7342 9.36694e-05ZM24.507 11.7739L14.3105 35.5521L16.1487 36.3403L26.3451 12.5621L24.507 11.7739ZM25.8012 35.2587L16.1487 36.3403L16.3714 38.3278L26.0239 37.2463L25.8012 35.2587ZM37.1703 36.3303L26.2192 35.2558L26.0239 37.2463L36.975 38.3208L37.1703 36.3303ZM26.3451 12.5621L37.1703 36.3303L38.9904 35.5014L28.1652 11.7332L26.3451 12.5621ZM36.975 38.3208C38.5086 38.4713 39.6291 36.9038 38.9904 35.5014L37.1703 36.3303L37.1703 36.3303L36.975 38.3208ZM26.0239 37.2463L26.0239 37.2463L26.2192 35.2558C26.0801 35.2422 25.94 35.2431 25.8012 35.2587L26.0239 37.2463ZM14.3105 35.5521C13.7062 36.9614 14.8475 38.4986 16.3714 38.3278L16.1487 36.3403L16.1487 36.3403L14.3105 35.5521ZM26.3451 12.5621L26.3451 12.5621L28.1652 11.7332C27.4453 10.1526 25.1914 10.1777 24.507 11.7739L26.3451 12.5621ZM26.5003 1.43773e-07C26.156 -0.000137529 25.8358 0.176843 25.6527 0.468521L27.3467 1.53175C27.1637 1.82326 26.8437 2.00014 26.4995 2L26.5003 1.43773e-07ZM28.0164 0.806992C27.7796 0.313975 27.2812 0.000312351 26.7342 9.36694e-05L26.7334 2.00009C26.5117 2 26.3097 1.87285 26.2136 1.67298L28.0164 0.806992ZM51.5634 54.855C52.663 54.4422 53.172 53.1753 52.6634 52.1165L50.8606 52.9825L50.8606 52.9825L51.5634 54.855ZM45.7026 55.0643C46.1385 56.0213 47.241 56.4773 48.2255 56.1078L47.5227 54.2354L47.5227 54.2354L45.7026 55.0643ZM39.6047 41.6754L39.6047 41.6754L41.4248 40.8464C41.1204 40.1781 40.4742 39.7303 39.7416 39.6801L39.6047 41.6754ZM26.024 40.7436L26.024 40.7436L26.1609 38.7483C26.0604 38.7414 25.9595 38.7421 25.8591 38.7504L26.024 40.7436ZM13.8277 41.7527L13.8277 41.7527L13.6628 39.7595C12.9251 39.8205 12.2814 40.2841 11.9896 40.9645L13.8277 41.7527ZM5.20288 56.6327C6.22614 57.1099 7.44128 56.646 7.88625 55.6083L6.04812 54.8201L6.04812 54.8201L5.20288 56.6327ZM0.502043 52.2517C0.0459142 53.2508 0.480778 54.4308 1.47617 54.8949L2.3214 53.0823L2.3214 53.0823L0.502043 52.2517ZM26.4992 2.00027C26.8435 2.00035 27.1636 1.82334 27.3467 1.53175L25.6527 0.468521C25.8356 0.177096 26.1555 0.00019587 26.4997 0.000270447L26.4992 2.00027ZM25.6431 8.48141e-05C24.8599 -8.49339e-05 24.1486 0.456957 23.8233 1.16946L25.6427 2.00008L25.6427 2.00008L25.6431 8.48141e-05Z" fill="black" mask="url(#path-1-outside-1_1435_2134)"/>
</svg>
